<svg width="51" height="43" viewBox="0 0 51 43" fill="none" xmlns="http://www.w3.org/2000/svg">
<path d="M50.5 8.94435V33.9443L41 26.9443V15.4443L50.5 8.94435Z" fill="#9A9A9B"/>
<path d="M39 31.9443V9.94435L46.5 2.44453C46.5 2.44453 47.2697 1.71395 46 0.444419C45 -0.555482 43.5 0.444347 43.5 0.444347C43.5 0.444347 4.89996 39.5443 4.49996 39.9443C3.8881 40.5562 4.02703 41.527 4.5 42C5 42.5 6.5 42.5 7 42L13.5 35.4443H36C38.4 35.4443 39 33.111 39 31.9443Z" fill="#9A9A9B"/>
<path d="M6 35.4444L34.5 6.94437H6C4 6.94437 3.41667 8.94437 3.375 9.94437V12.6319H0V29.9444H3.5V32.4444C3.5 34.0444 5.16667 35.111 6 35.4444Z" fill="#9A9A9B"/>
</svg>
