<svg width="38" height="68" viewBox="0 0 38 68" fill="none" xmlns="http://www.w3.org/2000/svg">
<path fill-rule="evenodd" clip-rule="evenodd" d="M18.3197 0L18.3634 15.045C18.3634 15.045 18.1447 18.7188 17.5543 20.5775C16.8545 22.7861 15.7611 24.295 15.1051 25.0385C14.4272 25.782 12.1092 27.8594 11.4095 28.428C10.4473 29.259 8.71975 31.1615 8.10745 33.1077C7.7357 34.2886 7.7357 34.9883 7.95438 36.2566C8.15119 37.3282 9.00403 38.7933 9.46325 39.34C10.2505 40.2366 10.8846 40.8707 12.1311 41.7673C12.5029 42.0297 14.8208 43.5605 15.6737 44.4133C16.5702 45.3536 17.4668 46.6875 18.1885 49.421C18.9538 52.395 18.9757 56.1125 18.9757 56.7029C18.9757 57.3152 18.8445 67.6587 18.8445 67.6587H18.4727C18.4727 67.6587 18.4727 66.3247 18.4071 65.9311C18.3415 65.5156 18.1447 63.0446 18.0135 62.2573C17.8823 61.4701 17.4668 59.4801 16.9857 58.6492C16.5046 57.8182 16.0454 56.9435 15.3238 56.3749C14.6459 55.8501 13.4432 55.1066 11.8687 54.8661C10.4254 54.6474 8.74161 54.2756 7.6701 53.7945C6.48924 53.2697 4.8929 52.3513 4.2806 51.6296C3.64644 50.908 2.728 49.9458 2.22504 48.8962C1.78768 47.9777 0.97858 46.0752 0.869241 45.4629C0.803638 45.1131 0.278813 42.5764 0.235078 41.8548C-0.0273346 37.6124 0.0382685 37.8093 0.0164008 37.2407C-0.00546692 36.6503 -0.00546692 32.4298 0.0164008 32.1236C0.0382685 31.8175 0.0820039 24.6668 0.0820039 24.6668L0.0164008 20.7743H0.453755L0.563093 24.9729C0.563093 24.9729 0.650564 27.0285 0.738035 27.9688C0.825506 28.8872 0.97858 30.1993 1.10979 30.7241C1.28473 31.2271 1.5034 32.2549 1.72208 32.9765C1.94076 33.6981 2.37811 34.9446 2.728 35.71C2.96854 36.2348 3.62457 37.4375 3.99632 37.9623C4.36807 38.509 5.0241 39.2963 5.48333 39.7117C6.3799 40.5427 7.88877 41.4612 8.36986 41.658C8.85095 41.8548 11.1908 42.9044 11.7375 43.0794C12.4591 43.3418 13.64 43.9322 14.2523 44.3258C14.799 44.6757 16.0892 45.9222 16.4828 46.4033C16.8545 46.8843 17.3575 47.6716 17.3575 47.6716L17.4887 47.8465C17.4887 47.8465 17.1169 46.7969 16.614 46.0752C16.2204 45.5067 15.3457 44.5882 14.9302 44.304C14.4928 44.0197 13.8149 43.4949 12.6997 42.9044C11.5625 42.3359 9.9006 41.4612 9.48512 41.1331C9.06963 40.827 7.53889 39.7336 6.97033 38.9464C6.68605 38.5309 5.37399 36.8252 4.78356 35.535C4.38994 34.6603 3.97445 33.217 3.73391 32.2986C3.55897 31.5332 3.20908 29.1278 3.20908 28.2749C3.20908 27.4221 3.18722 26.5693 3.31842 25.2353C3.42776 24.2075 3.69017 23.4203 3.90885 22.6112C4.17126 21.5616 5.33025 19.331 5.85508 18.6531C6.29243 18.0846 7.29834 16.7725 7.8013 16.1602C8.52294 15.3293 10.0318 13.8641 10.994 12.9238C11.9562 11.9616 13.64 10.3653 14.5366 9.2719C15.4987 8.11292 15.8705 7.54436 16.3297 6.66965C16.7452 5.86054 17.2044 4.83276 17.5106 3.4551C17.7074 2.53665 17.9042 0.85284 17.9042 0.85284L17.926 0H18.3197Z" fill="#BF0811"/>
<path fill-rule="evenodd" clip-rule="evenodd" d="M22.4089 63.0446V22.3707H36.6885L37.8912 20.8399H22.4089V3.45511L21.1406 4.81091V20.8399H7.73568L6.37988 22.3707H21.1406V64.4441L22.4089 63.0446ZM23.546 62.7166C24.0271 62.7166 24.4207 63.1102 24.4207 63.5913C24.4207 64.0724 24.0271 64.466 23.546 64.466C23.0649 64.466 22.6713 64.0724 22.6713 63.5913C22.6713 63.1102 23.0649 62.7166 23.546 62.7166ZM23.546 62.804C23.9834 62.804 24.3551 63.1539 24.3551 63.6131C24.3551 64.0724 24.0052 64.4223 23.546 64.4223C23.0868 64.4223 22.7369 64.0724 22.7369 63.6131C22.7369 63.1539 23.0868 62.804 23.546 62.804ZM23.1743 64.1598V63.0227H23.5898C23.6772 63.0227 23.7428 63.0227 23.7866 63.0446C23.8303 63.0665 23.8522 63.1102 23.8959 63.1539C23.9178 63.1977 23.9396 63.2633 23.9396 63.3289C23.9396 63.4163 23.9178 63.4819 23.874 63.5475C23.8303 63.5913 23.7647 63.635 23.6772 63.6569C23.721 63.6788 23.7428 63.7006 23.7647 63.7225C23.8084 63.7662 23.8303 63.81 23.8522 63.8756L24.0052 64.1817H23.8522L23.721 63.9412C23.6772 63.8537 23.6335 63.7881 23.6116 63.7444C23.5898 63.7225 23.5679 63.7006 23.546 63.6788C23.5242 63.6569 23.4804 63.6569 23.4586 63.6569H23.3055V64.1598H23.1743ZM23.3055 63.5257H23.5679C23.6335 63.5257 23.6772 63.5257 23.6991 63.5038C23.721 63.4819 23.7428 63.4601 23.7647 63.4382C23.7866 63.4163 23.7866 63.3726 23.7866 63.3289C23.7866 63.2633 23.7647 63.2195 23.7428 63.1977C23.6991 63.1539 23.6554 63.1539 23.5898 63.1539H23.3055V63.5257Z" fill="black"/>
</svg>
