<svg width="434" height="138" viewBox="0 0 434 138" fill="none" xmlns="http://www.w3.org/2000/svg">
<g opacity="0.5">
<g clip-path="url(#clip0)">
<path fill-rule="evenodd" clip-rule="evenodd" d="M37.3584 0L37.4884 30.6594C37.4884 30.6594 37.0336 38.1453 35.7991 41.9858C34.3698 46.4774 32.1608 49.5368 30.7964 51.0991C29.4321 52.5962 24.6893 56.8274 23.2599 58.0641C21.3108 59.7566 17.7375 63.6623 16.503 67.5679C15.7234 69.9764 15.7234 71.4085 16.1782 74.0123C16.568 76.2255 18.3222 79.2198 19.2318 80.3264C20.7911 82.1491 22.1554 83.4509 24.6243 85.2736C25.4039 85.7943 30.1467 88.9189 31.836 90.6764C33.6551 92.6292 35.4743 95.2981 36.9686 100.896C38.5279 106.95 38.5928 114.501 38.5928 115.738C38.5928 116.975 38.333 138.065 38.333 138.065H37.5533C37.5533 138.065 37.5533 135.331 37.4234 134.55C37.2934 133.704 36.9036 128.692 36.6437 127.064C36.3839 125.502 35.5393 121.401 34.5647 119.708C33.5902 118.016 32.6806 116.258 31.1863 115.087C29.7569 113.98 27.353 112.548 24.1695 112.027C21.2458 111.572 17.8024 110.791 15.6584 109.814C13.2545 108.773 10.006 106.885 8.70662 105.388C7.40722 103.956 5.52309 101.938 4.48357 99.7896C3.57399 97.9019 1.94973 94.0613 1.75482 92.7594C1.62488 92.0434 0.585362 86.9009 0.455422 85.4038C-0.0643382 76.7462 0.0656019 77.2019 0.000631846 75.9651C-0.0643382 74.7934 -0.0643382 66.2009 0.000631846 65.55C0.0656019 64.8991 0.130572 50.383 0.130572 50.383L0.0656019 42.3764H0.975183L1.23506 50.9689C1.23506 50.9689 1.42997 55.2 1.62488 57.0877C1.81979 58.9755 2.14464 61.6443 2.40452 62.6859C2.6644 63.7274 3.11919 65.8755 3.57399 67.3075C4.02878 68.8047 4.93836 71.3434 5.65303 72.9057C6.17279 74.0123 7.47219 76.4208 8.18686 77.5274C8.9665 78.634 10.2659 80.1962 11.1755 81.1075C12.9946 82.8 16.0482 84.6877 17.0228 85.0783C17.9973 85.4689 22.8051 87.617 23.8446 88.0075C25.339 88.5283 27.7428 89.7651 28.9773 90.5462C30.0818 91.2623 32.7455 93.8009 33.5252 94.7774C34.3048 95.7538 35.2794 97.316 35.2794 97.316L35.5393 97.6415C35.5393 97.6415 34.7596 95.4934 33.7201 94.0613C32.9405 92.8896 31.1213 91.067 30.2767 90.4811C29.3671 89.8953 28.0027 88.7887 25.7288 87.617C23.3899 86.4453 20.0764 84.6877 19.1668 84.0368C18.3222 83.3859 15.2036 81.1726 14.0342 79.5453C13.4494 78.6991 10.7857 75.184 9.55123 72.5802C8.77159 70.7575 7.86201 67.8283 7.40722 66.0057C7.0174 64.4434 6.3677 59.5613 6.3677 57.8038C6.3677 56.0462 6.30273 54.3538 6.62758 51.6198C6.82249 49.5368 7.40722 47.9094 7.79704 46.2821C8.3168 44.134 10.7207 39.5774 11.7602 38.2104C12.6698 37.0387 14.6839 34.3698 15.7234 33.133C17.2177 31.4406 20.2713 28.4462 22.2204 26.4934C24.1695 24.5406 27.6129 21.2858 29.4321 19.0726C31.3812 16.7292 32.1608 15.5575 33.0704 13.7349C33.915 12.0425 34.8896 10.0245 35.4743 7.16038C35.8641 5.27264 36.2539 1.88774 36.2539 1.88774L36.5788 0H37.3584Z" fill="black"/>
<path fill-rule="evenodd" clip-rule="evenodd" d="M45.6738 128.561V45.6311H74.7154L77.1843 42.5066H45.6738V7.03018L43.075 9.76414V42.4415H15.7876L13.0588 45.566H43.075V131.491L45.6738 128.561ZM47.9478 127.91C48.9223 127.91 49.702 128.691 49.702 129.668C49.702 130.644 48.9223 131.425 47.9478 131.425C46.9732 131.425 46.1936 130.644 46.1936 129.668C46.1936 128.691 46.9732 127.91 47.9478 127.91ZM47.9478 128.041C48.8573 128.041 49.572 128.757 49.572 129.668C49.572 130.579 48.8573 131.295 47.9478 131.295C47.0382 131.295 46.3235 130.579 46.3235 129.668C46.3235 128.757 47.0382 128.041 47.9478 128.041ZM47.2331 130.84V128.496H48.0777C48.2726 128.496 48.4025 128.496 48.4675 128.561C48.5325 128.626 48.5975 128.692 48.6624 128.757C48.7274 128.887 48.7274 128.952 48.7274 129.082C48.7274 129.277 48.6624 129.408 48.5975 129.538C48.5325 129.668 48.4025 129.733 48.2076 129.733C48.2726 129.798 48.3376 129.798 48.3376 129.863C48.4025 129.928 48.4675 130.058 48.5325 130.189L48.8573 130.84H48.5325L48.2726 130.384C48.1427 130.189 48.0777 130.058 48.0777 129.993C48.0127 129.928 47.9478 129.863 47.9478 129.863C47.8828 129.863 47.8178 129.798 47.7528 129.798H47.493V130.84H47.2331ZM47.493 129.538H48.0127C48.1427 129.538 48.2076 129.538 48.2726 129.473C48.3376 129.473 48.4025 129.408 48.4025 129.342C48.4675 129.277 48.4675 129.212 48.4675 129.147C48.4675 129.017 48.4025 128.952 48.3376 128.887C48.2726 128.822 48.1427 128.757 48.0127 128.757H47.428V129.538H47.493Z" fill="black"/>
<path fill-rule="evenodd" clip-rule="evenodd" d="M56.5239 97.1859V56.5019H63.7356V97.1859H56.5239ZM66.2045 104.802L70.5575 99.3991C72.9613 101.612 75.6901 102.719 78.6787 102.719C80.6928 102.719 82.317 102.393 83.6164 101.808C84.9158 101.222 85.5655 100.375 85.5655 99.334C85.5655 97.5764 84.1362 96.6651 81.2775 96.6651C80.4979 96.6651 79.3284 96.7302 77.8341 96.9255C76.2748 97.1208 75.1703 97.1859 74.3907 97.1859C69.6479 97.1859 67.244 95.4934 67.244 92.0434C67.244 91.067 67.6338 90.0906 68.4134 89.1792C69.1931 88.2028 70.1027 87.5519 71.2072 87.0962C67.8287 84.883 66.1395 81.7585 66.1395 77.7226C66.1395 74.533 67.309 71.9292 69.6479 69.8462C71.9868 67.7632 74.8455 66.7217 78.2239 66.7217C80.8877 66.7217 83.0967 67.2425 84.9158 68.2189L87.6446 65.0292L92.4524 69.3906L89.1389 71.7991C90.3084 73.5566 90.8931 75.5745 90.8931 77.983C90.8931 81.3679 89.8536 84.1019 87.7745 86.1198C85.6955 88.1377 83.0967 89.1792 79.9781 89.1792C79.4584 89.1792 78.8087 89.1142 77.964 89.0491L76.7946 88.9189C76.6646 88.9189 76.1449 89.1142 75.3003 89.5047C74.4557 89.8953 74.0009 90.2858 74.0009 90.7415C74.0009 91.4575 74.6506 91.8481 75.95 91.8481C76.5347 91.8481 77.5093 91.7179 78.8087 91.4576C80.173 91.1972 81.3425 91.067 82.2521 91.067C89.009 91.067 92.3874 93.8009 92.3874 99.2038C92.3874 102.198 91.023 104.542 88.3593 106.299C85.6305 107.992 82.382 108.838 78.6137 108.838C73.9359 108.838 69.8428 107.536 66.2045 104.802ZM73.0913 77.8528C73.0913 79.6104 73.5461 81.0425 74.5206 82.084C75.4952 83.1255 76.7946 83.6462 78.4188 83.6462C80.0431 83.6462 81.3425 83.1255 82.1871 82.084C83.0967 81.0425 83.5515 79.6104 83.5515 77.7877C83.5515 76.2906 83.0967 74.9887 82.1221 73.9472C81.1476 72.9057 79.9131 72.3849 78.4188 72.3849C76.8596 72.3849 75.5602 72.9057 74.5206 73.8821C73.611 74.9887 73.0913 76.2906 73.0913 77.8528ZM111.359 73.8821C110.124 73.0359 108.76 72.6453 107.266 72.6453C105.641 72.6453 104.212 73.3613 102.978 74.8585C101.743 76.3557 101.093 78.1132 101.093 80.1962V97.1208H94.2066V67.3726H101.158V70.1066C103.107 67.8934 105.641 66.8519 108.89 66.8519C111.229 66.8519 113.048 67.2425 114.347 67.9585L111.359 73.8821ZM140.985 84.4274H119.805C119.935 86.7708 120.779 88.6585 122.274 89.9604C123.768 91.2623 125.782 91.9132 128.316 91.9132C131.499 91.9132 133.903 91.067 135.528 89.4396L138.191 94.7123C135.787 96.6651 132.084 97.7066 127.276 97.7066C122.728 97.7066 119.155 96.3396 116.556 93.7359C113.957 91.067 112.593 87.3566 112.593 82.6047C112.593 77.9179 114.022 74.1425 116.946 71.2132C119.87 68.284 123.313 66.8519 127.341 66.8519C131.629 66.8519 135.073 68.1538 137.736 70.6925C140.335 73.2311 141.635 76.5509 141.635 80.5217C141.57 81.433 141.31 82.7349 140.985 84.4274ZM120 79.2198H134.553C134.098 74.8585 131.694 72.7104 127.341 72.7104C123.443 72.7104 120.974 74.8585 120 79.2198ZM138.321 108.838V102.654C142.025 102.654 144.493 102.198 145.793 101.352C147.092 100.441 147.742 98.8783 147.742 96.6V73.166H142.414V67.4377H154.694V96.4698C154.694 100.701 153.329 103.825 150.666 105.843C148.002 107.861 143.909 108.838 138.321 108.838ZM150.99 55.916C152.095 55.916 153.069 56.3066 153.849 57.0877C154.629 57.8689 155.019 58.8453 155.019 59.9519C155.019 61.0585 154.629 62.0349 153.849 62.816C153.069 63.5972 152.095 63.9877 150.99 63.9877C149.886 63.9877 148.911 63.5972 148.132 62.816C147.352 62.0349 146.962 61.0585 146.962 59.9519C146.962 58.8453 147.352 57.8689 148.132 57.0877C148.976 56.3066 149.886 55.916 150.99 55.916ZM176.394 94.1915C175.744 95.233 174.639 96.0793 173.08 96.7302C171.521 97.3811 169.897 97.7066 168.207 97.7066C165.024 97.7066 162.49 96.9255 160.671 95.2981C158.852 93.6708 157.942 91.3925 157.942 88.4632C157.942 85.0132 159.242 82.3443 161.84 80.3915C164.439 78.4387 168.078 77.4623 172.82 77.4623C173.665 77.4623 174.575 77.5925 175.679 77.8528C175.679 74.3377 173.47 72.5802 169.052 72.5802C166.453 72.5802 164.244 73.0359 162.49 73.8821L160.996 68.4792C163.4 67.3075 166.193 66.7868 169.507 66.7868C174.055 66.7868 177.368 67.8283 179.447 69.8462C181.526 71.9292 182.631 75.8349 182.631 81.5632V87.9425C182.631 91.9132 183.41 94.3868 185.035 95.4283C184.45 96.4047 183.8 97.0557 183.151 97.2509C182.436 97.4462 181.656 97.5764 180.747 97.5764C179.772 97.5764 178.863 97.1859 178.083 96.4698C177.173 95.884 176.654 95.1028 176.394 94.1915ZM175.744 83.1906C174.575 82.9302 173.665 82.8 173.08 82.8C167.623 82.8 164.894 84.6226 164.894 88.2028C164.894 90.8717 166.453 92.1736 169.507 92.1736C173.665 92.1736 175.744 90.0906 175.744 85.9245V83.1906ZM238.115 98.4226H231.098L226.875 76.4859L218.754 98.9434H216.155L207.969 76.4859L203.616 98.4226H196.664L204.851 57.6736H208.684L217.455 85.0783L226.031 57.6736H229.799L238.115 98.4226ZM266.637 85.6642H245.457C245.587 88.0076 246.431 89.8953 247.926 91.1972C249.42 92.4991 251.434 93.15 253.968 93.15C257.151 93.15 259.555 92.3038 261.18 90.6764L263.843 95.9491C261.439 97.9019 257.736 98.9434 252.928 98.9434C248.38 98.9434 244.807 97.5764 242.208 94.9726C239.61 92.3038 238.245 88.5934 238.245 83.8415C238.245 79.1547 239.675 75.3792 242.598 72.45C245.522 69.5208 248.965 68.0887 252.993 68.0887C257.281 68.0887 260.725 69.3906 263.389 71.9292C265.987 74.4679 267.287 77.7877 267.287 81.7585C267.222 82.6047 267.027 83.9066 266.637 85.6642ZM245.652 80.3915H260.205C259.75 76.0302 257.346 73.8821 252.993 73.8821C249.095 73.8821 246.626 76.0953 245.652 80.3915ZM271.12 74.2075H267.677V68.6094H271.12V62.5557L278.072 60.017V68.6094H286.258V74.2075H278.072V87.2264C278.072 89.3745 278.397 90.8717 279.046 91.7179C279.696 92.6292 280.866 93.0198 282.555 93.0198C284.244 93.0198 285.803 92.5642 287.233 91.6528V98.0321C285.608 98.5528 283.334 98.8783 280.346 98.8783C277.357 98.8783 275.083 98.0321 273.524 96.3396C271.965 94.6472 271.12 92.3038 271.12 89.1792V74.2075ZM288.597 83.4509C288.597 78.8943 289.896 75.2491 292.495 72.3849C295.094 69.5208 298.537 68.0887 302.825 68.0887C307.308 68.0887 310.817 69.4557 313.351 72.1896C315.819 74.9236 317.119 78.6991 317.119 83.4509C317.119 88.2028 315.819 91.9783 313.286 94.7774C310.752 97.5764 307.243 99.0085 302.825 99.0085C298.342 99.0085 294.834 97.5764 292.3 94.7774C289.896 91.9132 288.597 88.1377 288.597 83.4509ZM295.809 83.4509C295.809 90.0255 298.148 93.2802 302.89 93.2802C305.034 93.2802 306.789 92.434 308.023 90.7415C309.257 89.0491 309.907 86.6406 309.907 83.4509C309.907 77.0066 307.568 73.7519 302.89 73.7519C300.746 73.7519 298.992 74.5981 297.758 76.2906C296.458 78.0481 295.809 80.3915 295.809 83.4509ZM340.443 98.4226V96.6C339.858 97.2509 338.884 97.7717 337.519 98.2274C336.155 98.683 334.726 98.9434 333.296 98.9434C329.138 98.9434 325.89 97.6415 323.551 94.9726C321.212 92.3689 319.978 88.6585 319.978 83.9717C319.978 79.2849 321.342 75.4443 324.071 72.5151C326.799 69.5859 330.243 68.0887 334.336 68.0887C336.61 68.0887 338.624 68.5443 340.508 69.4557V57.5434L347.46 55.916V98.4226H340.443ZM340.443 75.7698C338.949 74.5981 337.454 74.0123 335.83 74.0123C333.036 74.0123 330.892 74.8585 329.398 76.5509C327.904 78.2434 327.124 80.6519 327.124 83.8415C327.124 90.0255 330.113 93.0849 336.025 93.0849C336.675 93.0849 337.519 92.8896 338.494 92.4991C339.469 92.1085 340.118 91.7179 340.378 91.3274V75.7698H340.443ZM353.502 98.4226V74.3377H349.669V68.6094H360.519V98.3576H353.502V98.4226ZM357.075 57.0877C358.18 57.0877 359.154 57.4783 359.934 58.2594C360.714 59.0406 361.104 60.017 361.104 61.1236C361.104 62.2302 360.714 63.2066 359.934 63.9877C359.154 64.7689 358.18 65.1594 357.075 65.1594C355.971 65.1594 354.996 64.7689 354.217 63.9877C353.437 63.2066 353.047 62.2302 353.047 61.1236C353.047 60.017 353.437 59.0406 354.217 58.2594C354.996 57.4783 355.971 57.0877 357.075 57.0877ZM364.092 96.4698L366.561 90.9368C368.64 92.5642 370.979 93.4104 373.578 93.4104C376.307 93.4104 377.606 92.434 377.606 90.5462C377.606 89.4396 377.216 88.4632 376.372 87.7472C375.527 87.0311 373.968 86.1849 371.629 85.2085C366.496 83.0604 363.962 80.066 363.962 76.2906C363.962 73.7519 364.937 71.734 366.886 70.3019C368.835 68.8698 371.369 68.1538 374.422 68.1538C377.476 68.1538 380.4 68.8698 383.128 70.2368L381.114 75.6396C379.62 74.3377 377.476 73.6868 374.812 73.6868C372.408 73.6868 371.174 74.6632 371.174 76.5509C371.174 77.3321 371.564 77.983 372.343 78.634C373.123 79.2198 374.812 80.066 377.476 81.1075C380.075 82.1491 381.959 83.3858 383.128 84.883C384.298 86.3151 384.883 88.1377 384.883 90.1557C384.883 92.8896 383.843 95.1028 381.829 96.6651C379.815 98.2274 377.021 99.0736 373.513 99.0736C371.564 99.0736 369.939 98.9434 368.77 98.5528C367.471 98.1623 365.911 97.4462 364.092 96.4698ZM388.716 74.2075H385.272V68.6094H388.716V62.5557L395.668 60.017V68.6094H403.854V74.2075H395.668V87.2264C395.668 89.3745 395.992 90.8717 396.642 91.7179C397.292 92.6292 398.461 93.0198 400.151 93.0198C401.84 93.0198 403.399 92.5642 404.828 91.6528V98.0321C403.204 98.5528 400.93 98.8783 397.942 98.8783C394.953 98.8783 392.679 98.0321 391.12 96.3396C389.56 94.6472 388.716 92.3038 388.716 89.1792V74.2075ZM425.359 95.4283C424.709 96.4698 423.605 97.316 422.045 97.967C420.486 98.6179 418.862 98.9434 417.173 98.9434C413.989 98.9434 411.455 98.1623 409.636 96.5349C407.817 94.9076 406.907 92.6292 406.907 89.7C406.907 86.25 408.207 83.5811 410.806 81.6283C413.404 79.6755 417.043 78.6991 421.786 78.6991C422.63 78.6991 423.54 78.8292 424.644 79.0896C424.644 75.5745 422.435 73.817 418.017 73.817C415.419 73.817 413.21 74.2726 411.455 75.1189L409.961 69.716C412.365 68.5443 415.159 68.0236 418.472 68.0236C423.02 68.0236 426.334 69.0651 428.413 71.083C430.492 73.166 431.596 77.0717 431.596 82.8V89.1792C431.596 93.15 432.376 95.6236 434 96.6651C433.415 97.6415 432.766 98.2925 432.116 98.4877C431.401 98.7481 430.622 98.8132 429.712 98.8132C428.737 98.8132 427.828 98.4226 427.048 97.7066C426.204 97.1208 425.684 96.2745 425.359 95.4283ZM424.709 84.3623C423.54 84.1019 422.63 83.9717 422.045 83.9717C416.588 83.9717 413.859 85.7943 413.859 89.3745C413.859 92.0434 415.419 93.3453 418.472 93.3453C422.63 93.3453 424.709 91.2623 424.709 87.0962V84.3623Z" fill="black"/>
</g>
<path d="M64.2422 134V133.429C64.0605 133.628 63.7529 133.804 63.3193 133.956C62.8857 134.103 62.4375 134.176 61.9746 134.176C60.6621 134.176 59.6279 133.76 58.8721 132.928C58.1221 132.096 57.7471 130.936 57.7471 129.447C57.7471 127.959 58.1777 126.749 59.0391 125.817C59.9062 124.88 60.9902 124.411 62.291 124.411C63.0059 124.411 63.6562 124.558 64.2422 124.851V121.08L66.4395 120.553V134H64.2422ZM64.2422 126.837C63.7734 126.462 63.2842 126.274 62.7744 126.274C61.8955 126.274 61.2188 126.544 60.7441 127.083C60.2695 127.616 60.0322 128.384 60.0322 129.386C60.0322 131.343 60.9756 132.321 62.8623 132.321C63.0732 132.321 63.3311 132.26 63.6357 132.137C63.9463 132.008 64.1484 131.879 64.2422 131.75V126.837ZM69.6503 129.271C69.6503 127.836 70.0634 126.667 70.8895 125.765C71.7216 124.862 72.8173 124.411 74.1766 124.411C75.6063 124.411 76.7167 124.845 77.5077 125.712C78.2987 126.579 78.6942 127.766 78.6942 129.271C78.6942 130.771 78.2899 131.964 77.4813 132.849C76.6786 133.733 75.577 134.176 74.1766 134.176C72.747 134.176 71.6337 133.73 70.8368 132.84C70.0458 131.943 69.6503 130.754 69.6503 129.271ZM71.9354 129.271C71.9354 131.346 72.6825 132.383 74.1766 132.383C74.8622 132.383 75.4042 132.113 75.8026 131.574C76.2069 131.035 76.4091 130.268 76.4091 129.271C76.4091 127.227 75.6649 126.204 74.1766 126.204C73.4911 126.204 72.9462 126.474 72.5419 127.013C72.1376 127.552 71.9354 128.305 71.9354 129.271ZM81.5007 133.394L82.283 131.645C82.9392 132.166 83.6804 132.427 84.5066 132.427C85.3621 132.427 85.7898 132.122 85.7898 131.513C85.7898 131.155 85.6609 130.862 85.4031 130.634C85.1453 130.405 84.6443 130.136 83.9002 129.825C82.2771 129.151 81.4656 128.208 81.4656 126.995C81.4656 126.181 81.7761 125.548 82.3972 125.097C83.0183 124.64 83.8123 124.411 84.7791 124.411C85.7576 124.411 86.6775 124.631 87.5388 125.07L86.906 126.775C86.4255 126.365 85.7576 126.16 84.9021 126.16C84.1345 126.16 83.7507 126.465 83.7507 127.074C83.7507 127.314 83.8767 127.531 84.1287 127.725C84.3806 127.918 84.9197 128.179 85.7459 128.507C86.572 128.829 87.1668 129.222 87.53 129.685C87.8933 130.147 88.075 130.707 88.075 131.363C88.075 132.236 87.7498 132.925 87.0994 133.429C86.4548 133.927 85.5759 134.176 84.4627 134.176C83.8357 134.176 83.3318 134.123 82.9509 134.018C82.5759 133.918 82.0925 133.71 81.5007 133.394ZM107.46 121.81L106.52 123.699C106.01 123.189 105.19 122.935 104.059 122.935C102.987 122.935 102.108 123.386 101.422 124.288C100.737 125.185 100.394 126.321 100.394 127.698C100.394 129.075 100.71 130.168 101.343 130.977C101.982 131.785 102.832 132.189 103.892 132.189C105.105 132.189 106.054 131.756 106.74 130.889L107.803 132.734C106.872 133.725 105.506 134.22 103.708 134.22C101.909 134.22 100.511 133.628 99.5152 132.444C98.5191 131.261 98.021 129.646 98.021 127.602C98.021 125.697 98.5718 124.106 99.6734 122.829C100.781 121.546 102.196 120.904 103.918 120.904C105.395 120.904 106.576 121.206 107.46 121.81ZM116.384 133.06C116.185 133.388 115.836 133.657 115.338 133.868C114.846 134.073 114.33 134.176 113.791 134.176C112.778 134.176 111.981 133.924 111.401 133.42C110.821 132.91 110.531 132.189 110.531 131.258C110.531 130.168 110.938 129.315 111.752 128.7C112.573 128.085 113.736 127.777 115.242 127.777C115.499 127.777 115.804 127.821 116.156 127.909C116.156 126.802 115.455 126.248 114.055 126.248C113.229 126.248 112.537 126.386 111.981 126.661L111.506 124.956C112.262 124.593 113.162 124.411 114.204 124.411C115.64 124.411 116.692 124.739 117.36 125.396C118.028 126.046 118.362 127.282 118.362 129.104V131.117C118.362 132.371 118.614 133.159 119.118 133.481C118.936 133.798 118.734 133.991 118.511 134.062C118.288 134.138 118.034 134.176 117.746 134.176C117.43 134.176 117.146 134.059 116.894 133.824C116.642 133.59 116.472 133.335 116.384 133.06ZM116.173 129.57C115.798 129.494 115.517 129.456 115.329 129.456C113.595 129.456 112.728 130.024 112.728 131.161C112.728 132.005 113.217 132.427 114.196 132.427C115.514 132.427 116.173 131.768 116.173 130.449V129.57ZM133.262 134V128.103C133.262 126.866 132.708 126.248 131.601 126.248C131.273 126.248 130.956 126.345 130.652 126.538C130.347 126.731 130.133 126.954 130.01 127.206V134H127.813V127.76C127.813 127.297 127.669 126.931 127.382 126.661C127.095 126.386 126.691 126.248 126.169 126.248C125.894 126.248 125.592 126.351 125.264 126.556C124.942 126.761 124.707 126.986 124.561 127.232V134H122.364V124.587H123.875L124.324 125.413C124.933 124.745 125.721 124.411 126.688 124.411C127.936 124.411 128.876 124.751 129.509 125.431C129.784 125.12 130.168 124.874 130.66 124.692C131.153 124.505 131.645 124.411 132.137 124.411C133.186 124.411 134 124.713 134.58 125.316C135.166 125.914 135.459 126.737 135.459 127.786V134H133.262ZM141.474 133.763V137.691H139.277V124.587H141.474V125.22C142.025 124.681 142.701 124.411 143.504 124.411C146.504 124.411 148.004 126.063 148.004 129.368C148.004 130.909 147.588 132.096 146.756 132.928C145.93 133.76 144.799 134.176 143.363 134.176C142.672 134.176 142.042 134.038 141.474 133.763ZM141.474 126.89V131.838C141.872 132.16 142.338 132.321 142.871 132.321C143.885 132.321 144.611 132.081 145.051 131.601C145.496 131.114 145.719 130.35 145.719 129.307C145.719 128.193 145.499 127.411 145.06 126.96C144.62 126.503 143.894 126.274 142.88 126.274C142.353 126.274 141.884 126.479 141.474 126.89ZM150.951 129.271C150.951 127.836 151.364 126.667 152.19 125.765C153.022 124.862 154.118 124.411 155.478 124.411C156.907 124.411 158.018 124.845 158.809 125.712C159.6 126.579 159.995 127.766 159.995 129.271C159.995 130.771 159.591 131.964 158.782 132.849C157.98 133.733 156.878 134.176 155.478 134.176C154.048 134.176 152.935 133.73 152.138 132.84C151.347 131.943 150.951 130.754 150.951 129.271ZM153.236 129.271C153.236 131.346 153.983 132.383 155.478 132.383C156.163 132.383 156.705 132.113 157.104 131.574C157.508 131.035 157.71 130.268 157.71 129.271C157.71 127.227 156.966 126.204 155.478 126.204C154.792 126.204 154.247 126.474 153.843 127.013C153.439 127.552 153.236 128.305 153.236 129.271ZM162.802 133.394L163.584 131.645C164.24 132.166 164.981 132.427 165.808 132.427C166.663 132.427 167.091 132.122 167.091 131.513C167.091 131.155 166.962 130.862 166.704 130.634C166.446 130.405 165.945 130.136 165.201 129.825C163.578 129.151 162.767 128.208 162.767 126.995C162.767 126.181 163.077 125.548 163.698 125.097C164.319 124.64 165.113 124.411 166.08 124.411C167.059 124.411 167.978 124.631 168.84 125.07L168.207 126.775C167.726 126.365 167.059 126.16 166.203 126.16C165.435 126.16 165.052 126.465 165.052 127.074C165.052 127.314 165.178 127.531 165.43 127.725C165.682 127.918 166.221 128.179 167.047 128.507C167.873 128.829 168.468 129.222 168.831 129.685C169.194 130.147 169.376 130.707 169.376 131.363C169.376 132.236 169.051 132.925 168.4 133.429C167.756 133.927 166.877 134.176 165.764 134.176C165.137 134.176 164.633 134.123 164.252 134.018C163.877 133.918 163.393 133.71 162.802 133.394ZM182.222 123.154V126.169H186.476V128.111H182.222V131.97H188.058V134H179.937V121.124H188.155V123.154H182.222ZM192.051 121.08L194.249 120.553V131.135C194.249 132.295 194.594 132.986 195.286 133.209C194.946 133.854 194.366 134.176 193.545 134.176C192.549 134.176 192.051 133.484 192.051 132.102V121.08ZM199.235 134V126.389H198.031V124.587H201.458V134H199.235ZM202.267 120.746L200.281 123.321H198.611L200.096 120.746H202.267ZM205.021 133.394L205.803 131.645C206.459 132.166 207.201 132.427 208.027 132.427C208.882 132.427 209.31 132.122 209.31 131.513C209.31 131.155 209.181 130.862 208.923 130.634C208.665 130.405 208.164 130.136 207.42 129.825C205.797 129.151 204.986 128.208 204.986 126.995C204.986 126.181 205.296 125.548 205.917 125.097C206.538 124.64 207.332 124.411 208.299 124.411C209.278 124.411 210.198 124.631 211.059 125.07L210.426 126.775C209.946 126.365 209.278 126.16 208.422 126.16C207.655 126.16 207.271 126.465 207.271 127.074C207.271 127.314 207.397 127.531 207.649 127.725C207.901 127.918 208.44 128.179 209.266 128.507C210.092 128.829 210.687 129.222 211.05 129.685C211.413 130.147 211.595 130.707 211.595 131.363C211.595 132.236 211.27 132.925 210.619 133.429C209.975 133.927 209.096 134.176 207.983 134.176C207.356 134.176 206.852 134.123 206.471 134.018C206.096 133.918 205.613 133.71 205.021 133.394ZM223.375 129.966H216.652C216.693 130.716 216.95 131.299 217.425 131.715C217.9 132.131 218.538 132.339 219.341 132.339C220.343 132.339 221.105 132.078 221.626 131.557L222.479 133.235C221.705 133.862 220.551 134.176 219.016 134.176C217.58 134.176 216.444 133.757 215.606 132.919C214.774 132.075 214.358 130.9 214.358 129.395C214.358 127.912 214.815 126.711 215.729 125.791C216.649 124.871 217.75 124.411 219.033 124.411C220.399 124.411 221.494 124.818 222.321 125.633C223.147 126.447 223.56 127.484 223.56 128.744C223.56 129.014 223.498 129.421 223.375 129.966ZM216.731 128.313H221.354C221.201 126.937 220.44 126.248 219.069 126.248C217.815 126.248 217.035 126.937 216.731 128.313ZM226.331 129.271C226.331 127.836 226.744 126.667 227.57 125.765C228.402 124.862 229.498 124.411 230.857 124.411C232.287 124.411 233.398 124.845 234.189 125.712C234.98 126.579 235.375 127.766 235.375 129.271C235.375 130.771 234.971 131.964 234.162 132.849C233.359 133.733 232.258 134.176 230.857 134.176C229.428 134.176 228.315 133.73 227.518 132.84C226.727 131.943 226.331 130.754 226.331 129.271ZM228.616 129.271C228.616 131.346 229.363 132.383 230.857 132.383C231.543 132.383 232.085 132.113 232.483 131.574C232.888 131.035 233.09 130.268 233.09 129.271C233.09 127.227 232.346 126.204 230.857 126.204C230.172 126.204 229.627 126.474 229.223 127.013C228.818 127.552 228.616 128.305 228.616 129.271ZM238.182 133.394L238.964 131.645C239.62 132.166 240.361 132.427 241.187 132.427C242.043 132.427 242.471 132.122 242.471 131.513C242.471 131.155 242.342 130.862 242.084 130.634C241.826 130.405 241.325 130.136 240.581 129.825C238.958 129.151 238.146 128.208 238.146 126.995C238.146 126.181 238.457 125.548 239.078 125.097C239.699 124.64 240.493 124.411 241.46 124.411C242.438 124.411 243.358 124.631 244.22 125.07L243.587 126.775C243.106 126.365 242.438 126.16 241.583 126.16C240.815 126.16 240.432 126.465 240.432 127.074C240.432 127.314 240.558 127.531 240.81 127.725C241.061 127.918 241.601 128.179 242.427 128.507C243.253 128.829 243.848 129.222 244.211 129.685C244.574 130.147 244.756 130.707 244.756 131.363C244.756 132.236 244.431 132.925 243.78 133.429C243.136 133.927 242.257 134.176 241.144 134.176C240.517 134.176 240.013 134.123 239.632 134.018C239.257 133.918 238.773 133.71 238.182 133.394ZM263.588 129.966H256.864C256.905 130.716 257.163 131.299 257.637 131.715C258.112 132.131 258.751 132.339 259.553 132.339C260.555 132.339 261.317 132.078 261.839 131.557L262.691 133.235C261.918 133.862 260.763 134.176 259.228 134.176C257.793 134.176 256.656 133.757 255.818 132.919C254.986 132.075 254.57 130.9 254.57 129.395C254.57 127.912 255.027 126.711 255.941 125.791C256.861 124.871 257.963 124.411 259.246 124.411C260.611 124.411 261.707 124.818 262.533 125.633C263.359 126.447 263.772 127.484 263.772 128.744C263.772 129.014 263.711 129.421 263.588 129.966ZM256.943 128.313H261.566C261.414 126.937 260.652 126.248 259.281 126.248C258.027 126.248 257.248 126.937 256.943 128.313ZM278.057 134V128.103C278.057 126.866 277.504 126.248 276.396 126.248C276.068 126.248 275.752 126.345 275.447 126.538C275.142 126.731 274.928 126.954 274.805 127.206V134H272.608V127.76C272.608 127.297 272.464 126.931 272.177 126.661C271.89 126.386 271.486 126.248 270.964 126.248C270.689 126.248 270.387 126.351 270.059 126.556C269.737 126.761 269.503 126.986 269.356 127.232V134H267.159V124.587H268.671L269.119 125.413C269.728 124.745 270.516 124.411 271.483 124.411C272.731 124.411 273.671 124.751 274.304 125.431C274.58 125.12 274.963 124.874 275.456 124.692C275.948 124.505 276.44 124.411 276.932 124.411C277.981 124.411 278.796 124.713 279.376 125.316C279.962 125.914 280.254 126.737 280.254 127.786V134H278.057ZM298.691 134L295.254 128.683C294.909 128.677 294.425 128.656 293.804 128.621V134H291.431V121.124C291.56 121.124 292.055 121.104 292.916 121.062C293.778 121.016 294.472 120.992 294.999 120.992C298.269 120.992 299.904 122.258 299.904 124.789C299.904 125.551 299.678 126.245 299.227 126.872C298.776 127.499 298.207 127.941 297.522 128.199L301.327 134H298.691ZM293.804 123.11V126.688C294.226 126.723 294.548 126.74 294.771 126.74C295.726 126.74 296.423 126.605 296.863 126.336C297.308 126.066 297.531 125.542 297.531 124.763C297.531 124.13 297.293 123.688 296.819 123.436C296.344 123.184 295.597 123.058 294.577 123.058C294.331 123.058 294.074 123.075 293.804 123.11ZM305.646 120.939C305.997 120.939 306.296 121.065 306.542 121.317C306.794 121.563 306.92 121.862 306.92 122.214C306.92 122.565 306.794 122.867 306.542 123.119C306.296 123.365 305.997 123.488 305.646 123.488C305.294 123.488 304.992 123.365 304.74 123.119C304.494 122.867 304.371 122.565 304.371 122.214C304.371 121.862 304.494 121.563 304.74 121.317C304.992 121.065 305.294 120.939 305.646 120.939ZM304.512 134V126.389H303.308V124.587H306.736V134H304.512ZM312.478 133.481L311.985 134.176H310.746V121.08L312.943 120.553V124.947C313.529 124.59 314.168 124.411 314.859 124.411C316.236 124.411 317.347 124.848 318.191 125.721C319.034 126.588 319.456 127.701 319.456 129.061C319.456 130.637 319.031 131.885 318.182 132.805C317.332 133.719 316.181 134.176 314.728 134.176C313.855 134.176 313.105 133.944 312.478 133.481ZM312.943 126.828V131.741C313.266 132.122 313.702 132.312 314.253 132.312C315.314 132.312 316.064 132.061 316.503 131.557C316.948 131.053 317.171 130.247 317.171 129.14C317.171 127.229 316.257 126.274 314.429 126.274C313.778 126.274 313.283 126.459 312.943 126.828ZM331.421 129.966H324.697C324.738 130.716 324.996 131.299 325.471 131.715C325.945 132.131 326.584 132.339 327.387 132.339C328.389 132.339 329.15 132.078 329.672 131.557L330.524 133.235C329.751 133.862 328.597 134.176 327.062 134.176C325.626 134.176 324.489 133.757 323.651 132.919C322.819 132.075 322.403 130.9 322.403 129.395C322.403 127.912 322.86 126.711 323.774 125.791C324.694 124.871 325.796 124.411 327.079 124.411C328.444 124.411 329.54 124.818 330.366 125.633C331.192 126.447 331.605 127.484 331.605 128.744C331.605 129.014 331.544 129.421 331.421 129.966ZM324.776 128.313H329.399C329.247 126.937 328.485 126.248 327.114 126.248C325.86 126.248 325.081 126.937 324.776 128.313ZM336.715 120.939C337.066 120.939 337.365 121.065 337.611 121.317C337.863 121.563 337.989 121.862 337.989 122.214C337.989 122.565 337.863 122.867 337.611 123.119C337.365 123.365 337.066 123.488 336.715 123.488C336.363 123.488 336.061 123.365 335.809 123.119C335.563 122.867 335.44 122.565 335.44 122.214C335.44 121.862 335.563 121.563 335.809 121.317C336.061 121.065 336.363 120.939 336.715 120.939ZM335.581 134V126.389H334.377V124.587H337.805V134H335.581ZM347.431 126.635C347.039 126.377 346.608 126.248 346.139 126.248C345.63 126.248 345.176 126.479 344.777 126.942C344.385 127.405 344.188 127.971 344.188 128.639V134H341.991V124.587H344.188V125.448C344.803 124.757 345.621 124.411 346.64 124.411C347.39 124.411 347.965 124.525 348.363 124.754L347.431 126.635ZM356.548 133.06C356.349 133.388 356.001 133.657 355.503 133.868C355.01 134.073 354.495 134.176 353.956 134.176C352.942 134.176 352.145 133.924 351.565 133.42C350.985 132.91 350.695 132.189 350.695 131.258C350.695 130.168 351.102 129.315 351.917 128.7C352.737 128.085 353.9 127.777 355.406 127.777C355.664 127.777 355.968 127.821 356.32 127.909C356.32 126.802 355.62 126.248 354.219 126.248C353.393 126.248 352.702 126.386 352.145 126.661L351.671 124.956C352.426 124.593 353.326 124.411 354.369 124.411C355.804 124.411 356.856 124.739 357.524 125.396C358.192 126.046 358.526 127.282 358.526 129.104V131.117C358.526 132.371 358.778 133.159 359.282 133.481C359.1 133.798 358.898 133.991 358.675 134.062C358.453 134.138 358.198 134.176 357.911 134.176C357.594 134.176 357.31 134.059 357.058 133.824C356.806 133.59 356.636 133.335 356.548 133.06ZM356.338 129.57C355.963 129.494 355.681 129.456 355.494 129.456C353.759 129.456 352.892 130.024 352.892 131.161C352.892 132.005 353.381 132.427 354.36 132.427C355.678 132.427 356.338 131.768 356.338 130.449V129.57ZM352.813 123.585H351.539C351.65 122.917 351.873 122.375 352.207 121.959C352.547 121.537 352.965 121.326 353.464 121.326C353.921 121.326 354.378 121.44 354.835 121.669C355.292 121.892 355.585 122.003 355.714 122.003C356.071 122.003 356.326 121.777 356.478 121.326H357.779C357.556 122.199 357.284 122.794 356.962 123.11C356.639 123.427 356.235 123.585 355.749 123.585C355.385 123.585 354.969 123.474 354.501 123.251C354.038 123.022 353.736 122.908 353.595 122.908C353.291 122.908 353.03 123.134 352.813 123.585ZM361.913 129.271C361.913 127.836 362.326 126.667 363.152 125.765C363.984 124.862 365.08 124.411 366.439 124.411C367.869 124.411 368.979 124.845 369.77 125.712C370.561 126.579 370.957 127.766 370.957 129.271C370.957 130.771 370.552 131.964 369.744 132.849C368.941 133.733 367.839 134.176 366.439 134.176C365.009 134.176 363.896 133.73 363.099 132.84C362.308 131.943 361.913 130.754 361.913 129.271ZM364.198 129.271C364.198 131.346 364.945 132.383 366.439 132.383C367.125 132.383 367.667 132.113 368.065 131.574C368.469 131.035 368.671 130.268 368.671 129.271C368.671 127.227 367.927 126.204 366.439 126.204C365.753 126.204 365.209 126.474 364.804 127.013C364.4 127.552 364.198 128.305 364.198 129.271ZM383.812 129.263V134H381.527V121.133C383.05 121.068 383.941 121.036 384.199 121.036C386.232 121.036 387.717 121.35 388.655 121.977C389.598 122.598 390.07 123.57 390.07 124.895C390.07 127.848 388.329 129.324 384.849 129.324C384.591 129.324 384.245 129.304 383.812 129.263ZM383.812 123.11V127.232C384.199 127.273 384.503 127.294 384.726 127.294C385.769 127.294 386.531 127.121 387.011 126.775C387.491 126.424 387.732 125.855 387.732 125.07C387.732 123.734 386.657 123.066 384.506 123.066C384.266 123.066 384.034 123.081 383.812 123.11ZM399.02 126.635C398.627 126.377 398.196 126.248 397.728 126.248C397.218 126.248 396.764 126.479 396.365 126.942C395.973 127.405 395.777 127.971 395.777 128.639V134H393.579V124.587H395.777V125.448C396.392 124.757 397.209 124.411 398.229 124.411C398.979 124.411 399.553 124.525 399.951 124.754L399.02 126.635ZM411.301 129.966H404.577C404.618 130.716 404.876 131.299 405.351 131.715C405.825 132.131 406.464 132.339 407.267 132.339C408.269 132.339 409.03 132.078 409.552 131.557L410.404 133.235C409.631 133.862 408.477 134.176 406.941 134.176C405.506 134.176 404.369 133.757 403.531 132.919C402.699 132.075 402.283 130.9 402.283 129.395C402.283 127.912 402.74 126.711 403.654 125.791C404.574 124.871 405.676 124.411 406.959 124.411C408.324 124.411 409.42 124.818 410.246 125.633C411.072 126.447 411.485 127.484 411.485 128.744C411.485 129.014 411.424 129.421 411.301 129.966ZM404.656 128.313H409.279C409.127 126.937 408.365 126.248 406.994 126.248C405.74 126.248 404.961 126.937 404.656 128.313ZM415.206 126.354H414.116V124.587H415.206V122.671L417.403 121.862V124.587H419.987V126.354H417.403V130.476C417.403 131.149 417.509 131.627 417.72 131.908C417.931 132.184 418.3 132.321 418.827 132.321C419.354 132.321 419.847 132.178 420.304 131.891V133.912C419.794 134.088 419.067 134.176 418.124 134.176C417.186 134.176 416.466 133.912 415.962 133.385C415.458 132.852 415.206 132.096 415.206 131.117V126.354ZM423.013 129.271C423.013 127.836 423.427 126.667 424.253 125.765C425.085 124.862 426.18 124.411 427.54 124.411C428.97 124.411 430.08 124.845 430.871 125.712C431.662 126.579 432.057 127.766 432.057 129.271C432.057 130.771 431.653 131.964 430.845 132.849C430.042 133.733 428.94 134.176 427.54 134.176C426.11 134.176 424.997 133.73 424.2 132.84C423.409 131.943 423.013 130.754 423.013 129.271ZM425.299 129.271C425.299 131.346 426.046 132.383 427.54 132.383C428.225 132.383 428.767 132.113 429.166 131.574C429.57 131.035 429.772 130.268 429.772 129.271C429.772 127.227 429.028 126.204 427.54 126.204C426.854 126.204 426.309 126.474 425.905 127.013C425.501 127.552 425.299 128.305 425.299 129.271Z" fill="#C2C3C9"/>
</g>
<defs>
<clipPath id="clip0">
<rect width="434" height="138" fill="white"/>
</clipPath>
</defs>
</svg>
